<svg xmlns="http://www.w3.org/2000/svg" height="512pt" version="1.1" viewBox="0 0 512 512" width="512pt">
<g id="surface1">
<path d="M 512 256 C 512 397.386719 397.386719 512 256 512 C 114.613281 512 0 397.386719 0 256 C 0 114.613281 114.613281 0 256 0 C 397.386719 0 512 114.613281 512 256 Z M 512 256 " style=" stroke:none;fill-rule:nonzero;fill:rgb(25.490196%,28.627451%,32.156863%);fill-opacity:1;" />
<path d="M 512 256 C 512 251.613281 511.886719 247.253906 511.671875 242.921875 L 348.75 80 L 340.574219 124.65625 L 295.917969 80 L 286.980469 123.898438 L 243.082031 80 L 231.453125 121.207031 L 190.25 80 L 149 417 L 243.699219 511.699219 C 247.777344 511.894531 251.875 512 256 512 C 397.386719 512 512 397.386719 512 256 Z M 512 256 " style=" stroke:none;fill-rule:nonzero;fill:rgb(13.72549%,15.294118%,16.862745%);fill-opacity:1;" />
<path d="M 149 108 L 367 108 L 367 417 L 149 417 Z M 149 108 " style=" stroke:none;fill-rule:nonzero;fill:rgb(100%,100%,100%);fill-opacity:1;" />
<path d="M 255.761719 108 L 367 108 L 367 417 L 255.761719 417 Z M 255.761719 108 " style=" stroke:none;fill-rule:nonzero;fill:rgb(91.372549%,92.941176%,96.078431%);fill-opacity:1;" />
<path d="M 163.25 80 L 190.25 80 L 190.25 136 L 163.25 136 Z M 163.25 80 " style=" stroke:none;fill-rule:nonzero;fill:rgb(80.392157%,82.352941%,88.235294%);fill-opacity:1;" />
<path d="M 216.082031 80 L 243.082031 80 L 243.082031 136 L 216.082031 136 Z M 216.082031 80 " style=" stroke:none;fill-rule:nonzero;fill:rgb(80.392157%,82.352941%,88.235294%);fill-opacity:1;" />
<path d="M 268.917969 80 L 295.917969 80 L 295.917969 136 L 268.917969 136 Z M 268.917969 80 " style=" stroke:none;fill-rule:nonzero;fill:rgb(74.509804%,76.470588%,82.352941%);fill-opacity:1;" />
<path d="M 321.75 80 L 348.75 80 L 348.75 136 L 321.75 136 Z M 321.75 80 " style=" stroke:none;fill-rule:nonzero;fill:rgb(74.509804%,76.470588%,82.352941%);fill-opacity:1;" />
<path d="M 386.058594 141.054688 L 425.882812 180.882812 L 247.675781 359.089844 L 207.847656 319.265625 Z M 386.058594 141.054688 " style=" stroke:none;fill-rule:nonzero;fill:rgb(100%,83.137255%,0%);fill-opacity:1;" />
<path d="M 227.535156 338.960938 L 405.746094 160.75 L 425.882812 180.886719 L 247.671875 359.09375 Z M 227.535156 338.960938 " style=" stroke:none;fill-rule:nonzero;fill:rgb(99.215686%,72.941176%,7.058824%);fill-opacity:1;" />
<path d="M 394.164062 149.164062 L 417.777344 172.773438 L 239.566406 350.984375 L 215.957031 327.371094 Z M 394.164062 149.164062 " style=" stroke:none;fill-rule:nonzero;fill:rgb(99.215686%,72.941176%,7.058824%);fill-opacity:1;" />
<path d="M 227.535156 338.960938 L 405.746094 160.75 L 417.773438 172.777344 L 239.5625 350.988281 Z M 227.535156 338.960938 " style=" stroke:none;fill-rule:nonzero;fill:rgb(100%,63.921569%,0%);fill-opacity:1;" />
<path d="M 247.675781 359.097656 L 193.53125 373.414062 L 207.847656 319.269531 Z M 247.675781 359.097656 " style=" stroke:none;fill-rule:nonzero;fill:rgb(96.078431%,89.019608%,65.490196%);fill-opacity:1;" />
<path d="M 193.691406 372.808594 L 193.53125 373.414062 L 247.675781 359.097656 L 227.539062 338.960938 Z M 193.691406 372.808594 " style=" stroke:none;fill-rule:nonzero;fill:rgb(96.078431%,84.705882%,50.980392%);fill-opacity:1;" />
<path d="M 193.53125 373.414062 L 218.972656 366.6875 L 200.257812 347.972656 Z M 193.53125 373.414062 " style=" stroke:none;fill-rule:nonzero;fill:rgb(25.490196%,28.627451%,32.156863%);fill-opacity:1;" />
<path d="M 193.53125 373.414062 L 218.972656 366.6875 L 209.394531 357.105469 Z M 193.53125 373.414062 " style=" stroke:none;fill-rule:nonzero;fill:rgb(13.72549%,15.294118%,16.862745%);fill-opacity:1;" />
</g>
</svg>